<svg xmlns="http://www.w3.org/2000/svg" width="533.32" height="221.13" viewBox="0 0 533.32 221.13">
  <path id="Union_1" data-name="Union 1" d="M181.543,213.332a28.843,28.843,0,1,1,28.843,28.842A28.843,28.843,0,0,1,181.543,213.332ZM72.695,233.444a28.844,28.844,0,0,1,0-40.791L235.857,29.491a29.188,29.188,0,0,1,41.073,0l67.983,67.984a28.843,28.843,0,1,1-40.79,40.791l-47.73-47.73L113.486,233.444a28.844,28.844,0,0,1-40.791,0Zm-244.205,0a28.844,28.844,0,0,1,0-40.791L-8.348,29.491a28.756,28.756,0,0,1,20.536-8.447,28.758,28.758,0,0,1,20.537,8.447L99.349,96.116a28.843,28.843,0,0,1-40.791,40.791L12.188,90.536-130.72,233.444a28.754,28.754,0,0,1-20.4,8.448A28.754,28.754,0,0,1-171.51,233.444Z" transform="translate(179.958 -21.044)" fill="#f13030"/>
</svg>
